<?xml version="1.0" encoding="UTF-8"?>
<svg width="2357px" height="1493px" viewBox="0 0 2357 1493" version="1.1" xmlns="http://www.w3.org/2000/svg" xmlns:xlink="http://www.w3.org/1999/xlink">
    <!-- Generator: Sketch 51.2 (57519) - http://www.bohemiancoding.com/sketch -->
    <title>BayesianEstimationLogo</title>
    <desc>Created with Sketch.</desc>
    <defs></defs>
    <g id="Page-1" stroke="none" stroke-width="1" fill="none" fill-rule="evenodd">
        <g id="BayesianEstimationLogo" transform="translate(0.000000, 1.000000)">
            <path d="M0,1488.84571 C326.171987,1488.84571 367.832485,440 508.191697,440 C648.550909,440 778.716259,1488.84571 1263.29613,1488.84571 C1263.29613,1488.84571 0,1488.84571 0,1488.84571 Z" id="Prior" stroke="#C78700" fill="#FFB71B" fill-rule="nonzero" opacity="0.85"></path>
            <path d="M525,1488.84571 C796.435445,1488.84571 831.104688,0 947.909523,0 C1064.71436,0 1173.03601,1488.84571 1576.29613,1488.84571 C1576.29613,1488.84571 525,1488.84571 525,1488.84571 Z" id="Posterior" stroke="#6A6B3B" fill="#6A6B3B" fill-rule="nonzero" opacity="0.85"></path>
            <path d="M796,1490.84571 C1199.03652,1490.84571 1250.51458,634 1423.95035,634 C1597.38611,634 1758.22576,1490.84571 2357,1490.84571 C2357,1490.84571 796,1490.84571 796,1490.84571 Z" id="Likelihood" stroke="#00588E" fill="#3284BF" fill-rule="nonzero" opacity="0.85"></path>
            <text id="Prior" fill="#000000" style="mix-blend-mode: color-burn;" font-family="Helvetica" font-size="72" font-weight="normal">
                <tspan x="432" y="1176">Prior</tspan>
            </text>
            <text id="Posterior" fill="#000000" style="mix-blend-mode: color-burn;" font-family="Helvetica" font-size="72" font-weight="normal">
                <tspan x="848" y="983">Posterior</tspan>
            </text>
            <text id="Likelihood" fill="#000000" style="mix-blend-mode: color-burn;" font-family="Helvetica" font-size="72" font-weight="normal">
                <tspan x="1326" y="1176">Likelihood</tspan>
            </text>
        </g>
    </g>
</svg>