<?xml version="1.0" encoding="UTF-8"?>
<svg width="160px" height="110px" viewBox="0 0 145 109" version="1.1" xmlns="http://www.w3.org/2000/svg" xmlns:xlink="http://www.w3.org/1999/xlink">
    <!-- Generator: Sketch 51.2 (57519) - http://www.bohemiancoding.com/sketch -->
    <title>hcla-full</title>
    <desc>Created with Sketch.</desc>
    <defs></defs>
    <g id="Page-1" stroke="none" stroke-width="1" fill="none" fill-rule="evenodd">
        <g id="hcla-full" transform="translate(1.000000, 0.000000)">
            <g>
                <g id="transfer-gate" transform="translate(64.094595, 81.000000)" fill="#C96A7C">
                    <polygon id="Triangle" points="12.4054054 0 24.8108108 24 0 24"></polygon>
                </g>
                <g id="or-gate" transform="translate(38.870270, 40.870000) rotate(-90.000000) translate(-38.870270, -40.870000) translate(26.464865, 28.870000)" fill="#C96A7C">
                    <path d="M0.0059208846,24 C1.31608464,17.3762052 11.5199712,17.3762052 12.4054054,17.3762052 C13.2908396,17.3762052 23.2381739,17.3762052 24.7825016,24 C25.196626,11.6905335 21.0671959,3.69053354 12.3942113,0 C3.95080636,3.71049472 -0.178623769,11.7104947 0.0059208846,24 Z" id="Path"></path>
                </g>
                <g id="success-branch">
                    <path id="Line" d="M24.8145946,12 L15.8145946,7.5 L15.8145946,16.5 L24.8145946,12 Z M0.496216216,12.5 L16.3145946,12.5 L16.8145946,12.5 L16.8145946,11.5 L16.3145946,11.5 L0.496216216,11.5 L-0.00378378378,11.5 L-0.00378378378,12.5 L0.496216216,12.5 Z" fill="#C96A7C" fill-rule="nonzero"></path>
                    <path d="M25.307027,22.8823529 L25.307027,1.6588757" id="Line-2-Copy" stroke="#C96A7C" stroke-linecap="square"></path>
                    <path d="M0.25,22.5 L0.25,1.46670362" id="Line-2" stroke="#C96A7C" stroke-linecap="square"></path>
                </g>
                <g id="failure-branch" transform="translate(50.655405, 55.000000)">
                    <g id="success-branch" transform="translate(2.026216, 19.764706)" fill="#C96A7C" fill-rule="nonzero">
                        <path id="Line" d="M23.8420108,2.11764706 L14.8420108,-2.38235294 L14.8420108,6.61764706 L23.8420108,2.11764706 Z M0.476367568,2.61764706 L15.3420108,2.61764706 L15.8420108,2.61764706 L15.8420108,1.61764706 L15.3420108,1.61764706 L0.476367568,1.61764706 L-0.0236324324,1.61764706 L-0.0236324324,2.61764706 L0.476367568,2.61764706 Z"></path>
                    </g>
                    <path d="M1.53,21.8823529 L1.53,0.658875701" id="Line-2" stroke="#C96A7C" stroke-linecap="square"></path>
                </g>
                <text id="ybrid" font-family="HelveticaNeue-UltraLight, Helvetica Neue" font-size="20" font-weight="200" fill="#C96A7C">
                    <tspan x="28.9459459" y="25">ybrid</tspan>
                </text>
                <text id="ausal" font-family="HelveticaNeue-UltraLight, Helvetica Neue" font-size="20" font-weight="200" fill="#C96A7C">
                    <tspan x="52.722973" y="53">ausal</tspan>
                </text>
                <text id="ogic" font-family="HelveticaNeue-UltraLight, Helvetica Neue" font-size="20" font-weight="200" fill="#C96A7C">
                    <tspan x="77.5337838" y="79">ogic</tspan>
                </text>
                <text id="nalyzer" font-family="HelveticaNeue-UltraLight, Helvetica Neue" font-size="20" font-weight="200" fill="#C96A7C">
                    <tspan x="89.9391892" y="105">nalyzer</tspan>
                </text>
            </g>
        </g>
    </g>
</svg>
