<?xml version="1.0" encoding="UTF-8"?>
<svg width="117px" height="30px" viewBox="0 0 117 30" version="1.1" xmlns="http://www.w3.org/2000/svg" xmlns:xlink="http://www.w3.org/1999/xlink">
    <!-- Generator: Sketch 51.3 (57544) - http://www.bohemiancoding.com/sketch -->
    <title>logo-thick</title>
    <desc>Created with Sketch.</desc>
    <defs></defs>
    <g id="Page-1" stroke="none" stroke-width="1" fill="none" fill-rule="evenodd">
        <g id="hcla" transform="translate(1.000000, 1.000000)" stroke="#A05362">
            <g id="transfer-gate" transform="translate(89.000000, 0.000000)" fill="#C96A7C" stroke-width="2">
                <path d="M13.5,2.23606798 L1.61803399,26 L25.381966,26 L13.5,2.23606798 Z" id="Triangle"></path>
            </g>
            <g id="or-gate" transform="translate(42.500000, 13.500000) rotate(-90.000000) translate(-42.500000, -13.500000) translate(30.000000, 1.000000)" fill="#C96A7C" stroke-width="2">
                <path d="M1.11234308,20.8131561 C2.31155436,19.5966484 3.9464335,18.6944938 5.91196142,18.0712238 C7.27322241,17.6395672 8.71812438,17.3675004 10.1789648,17.2207507 C11.1139277,17.1268284 11.8197551,17.1002138 12.5,17.1002138 C13.1862857,17.1002138 13.8953596,17.1279787 14.8346815,17.2261029 C16.3014128,17.3793218 17.7519446,17.6634754 19.1185768,18.1143861 C21.0974694,18.7673078 22.7421564,19.7136426 23.9454079,20.9906453 C23.4526088,11.0003551 19.6330633,4.41927727 12.4954881,1.1005422 C5.5948046,4.41550997 1.79566829,10.9418823 1.11234308,20.8131561 Z" id="Path"></path>
            </g>
            <g id="failure-branch" transform="translate(60.000000, 1.000000)">
                <g id="success-branch" transform="translate(1.000000, 17.000000)" fill="#C96A7C" fill-rule="nonzero">
                    <path d="M23.0792,5.11764706 L14.0792,0.61764706 L14.0792,9.61764706 L23.0792,5.11764706 Z M0.463011959,5.61764706 L13.536988,5.61764706 L14,5.61764706 L14,4.61764706 L13.536988,4.61764706 L0.463011959,4.61764706 L1.42108547e-14,4.61764706 L1.42108547e-14,5.61764706 L0.463011959,5.61764706 Z" id="Line"></path>
                </g>
                <path d="M1.5,20.8823529 L1.5,4.4408921e-16" id="Line-2" stroke-width="2" stroke-linecap="square"></path>
            </g>
            <path d="M1,26 L1,1" id="Line-2" stroke-width="2" stroke-linecap="square"></path>
            <path d="M24.25,26 L24.25,1" id="Line-2" stroke-width="2" stroke-linecap="square"></path>
            <g id="success-branch" transform="translate(1.000000, 9.000000)" fill="#C96A7C" fill-rule="nonzero">
                <path d="M23.1184,4.5 L14.1184,4.4408921e-16 L14.1184,9 L23.1184,4.5 Z M0.463011959,5 L13.536988,5 L14,5 L14,4 L13.536988,4 L0.463011959,4 L0,4 L0,5 L0.463011959,5 Z" id="Line"></path>
            </g>
        </g>
    </g>
</svg>