<?xml version="1.0" encoding="UTF-8"?>
<svg width="281px" height="503px" viewBox="0 0 281 503" version="1.1" xmlns="http://www.w3.org/2000/svg" xmlns:xlink="http://www.w3.org/1999/xlink">
    <!-- Generator: Sketch 51.3 (57544) - http://www.bohemiancoding.com/sketch -->
    <title>PhoenixHRALogo</title>
    <desc>Created with Sketch.</desc>
    <defs>
        <linearGradient x1="8.47815314%" y1="15.8702111%" x2="132.042094%" y2="87.5389473%" id="linearGradient-1">
            <stop stop-color="#FFB71B" offset="1.75183%"></stop>
            <stop stop-color="#FFB71B" offset="21.81%"></stop>
            <stop stop-color="#3284BF" offset="100%"></stop>
        </linearGradient>
        <linearGradient x1="-2.67119665%" y1="24.0685267%" x2="121.098643%" y2="81.2224724%" id="linearGradient-2">
            <stop stop-color="#FFB71B" offset="1.75183%"></stop>
            <stop stop-color="#FFB71B" offset="21.81%"></stop>
            <stop stop-color="#3284BF" offset="100%"></stop>
        </linearGradient>
        <linearGradient x1="-2.77601618%" y1="35.7286607%" x2="109.861022%" y2="74.077419%" id="linearGradient-3">
            <stop stop-color="#FFB71B" offset="0%"></stop>
            <stop stop-color="#FFB71B" offset="21.81%"></stop>
            <stop stop-color="#3284BF" offset="100%"></stop>
        </linearGradient>
        <linearGradient x1="-1.2968369%" y1="48.2534613%" x2="101.374755%" y2="56.9691444%" id="linearGradient-4">
            <stop stop-color="#FFB71B" offset="1.75183%"></stop>
            <stop stop-color="#FFB71B" offset="21.81%"></stop>
            <stop stop-color="#3284BF" offset="100%"></stop>
        </linearGradient>
        <linearGradient x1="6.15097295%" y1="56.9418063%" x2="96.0249528%" y2="16.7429769%" id="linearGradient-5">
            <stop stop-color="#FFB71B" offset="1.75183%"></stop>
            <stop stop-color="#FFB71B" offset="21.81%"></stop>
            <stop stop-color="#3284BF" offset="100%"></stop>
        </linearGradient>
        <linearGradient x1="12.9995027%" y1="74.4446826%" x2="92.6046583%" y2="-19.2519483%" id="linearGradient-6">
            <stop stop-color="#FFB71B" offset="1.75183%"></stop>
            <stop stop-color="#FFB71B" offset="21.81%"></stop>
            <stop stop-color="#3284BF" offset="100%"></stop>
        </linearGradient>
        <linearGradient x1="19.7427226%" y1="92.9808554%" x2="89.4224698%" y2="-13.6082969%" id="linearGradient-7">
            <stop stop-color="#FFB71B" offset="1.75183%"></stop>
            <stop stop-color="#FFB71B" offset="21.81%"></stop>
            <stop stop-color="#3284BF" offset="100%"></stop>
        </linearGradient>
        <linearGradient x1="28.1730344%" y1="101.030935%" x2="84.5807634%" y2="-8.39600001%" id="linearGradient-8">
            <stop stop-color="#FFB71B" offset="1.75183%"></stop>
            <stop stop-color="#FFB71B" offset="21.81%"></stop>
            <stop stop-color="#3284BF" offset="100%"></stop>
        </linearGradient>
        <linearGradient x1="41.7038471%" y1="102.406009%" x2="74.8383529%" y2="-3.44176066%" id="linearGradient-9">
            <stop stop-color="#FFB71B" offset="1.75183%"></stop>
            <stop stop-color="#FFB71B" offset="21.81%"></stop>
            <stop stop-color="#3284BF" offset="100%"></stop>
        </linearGradient>
        <linearGradient x1="53.240494%" y1="98.2368899%" x2="36.6047875%" y2="1.41510673%" id="linearGradient-10">
            <stop stop-color="#FFB71B" offset="1.75183%"></stop>
            <stop stop-color="#FFB71B" offset="21.81%"></stop>
            <stop stop-color="#3284BF" offset="100%"></stop>
        </linearGradient>
        <linearGradient x1="66.495663%" y1="91.2578123%" x2="-27.3827815%" y2="6.6292834%" id="linearGradient-11">
            <stop stop-color="#FFB71B" offset="1.75183%"></stop>
            <stop stop-color="#FFB71B" offset="21.81%"></stop>
            <stop stop-color="#3284BF" offset="100%"></stop>
        </linearGradient>
    </defs>
    <g id="Page-1" stroke="none" stroke-width="1" fill="none" fill-rule="evenodd">
        <g id="PhoenixHRALogo" fill-rule="nonzero">
            <g id="Group">
                <path d="M212.4,194.3 C216.1,195.9 220,197.3 223.9,198.3 C238.5,202.1 252,211.4 261.8,225.8 C270.6,238.7 275.2,253.9 275.7,269.1 C294,226.7 260.8,184.6 216.1,130.2 C165.1,68.1 226.9,0.7 226.9,0.7 C137.7,63.9 145.8,165.3 212.4,194.3 Z" id="Shape" fill="url(#linearGradient-1)"></path>
                <path d="M197.2,201.2 C201.2,201.6 205.3,201.6 209.3,201.4 C224.2,200.5 239.5,205.1 252.6,215.8 C264.3,225.4 272.5,238.5 276.7,252.9 C283.7,206.4 241.3,176.6 184.8,138.5 C120.3,95.1 162.8,10.8 162.8,10.8 C92.9,99.6 126.1,194.4 197.2,201.2 Z" id="Shape" fill="url(#linearGradient-2)"></path>
                <path d="M184.4,212.5 C188.3,211.6 192.2,210.4 196,208.9 C210.1,203.3 225.9,202.9 241.1,209 C254.8,214.5 265.9,224.5 273.5,237 C268.5,190.2 220.4,175 156.7,156.3 C83.9,135 103.7,40.8 103.7,40.8 C58.9,148.1 114.4,228.5 184.4,212.5 C184.4,212.5 184.4,212.5 184.4,212.5 Z" id="Shape" fill="url(#linearGradient-3)"></path>
                <path d="M175,227.4 C178.5,225.3 182,222.9 185.2,220.2 C197.3,210.3 212.4,204.9 228.5,206 C243,207 256.1,213 266.6,222.6 C250.1,179.3 200.1,179.9 134.3,182.2 C59.2,184.8 54.5,88.1 54.5,88.1 C38.4,205.4 111.8,265 175,227.4 C175,227.4 175,227.4 175,227.4 Z" id="Shape" fill="url(#linearGradient-4)"></path>
                <path d="M169.6,244.8 C172.5,241.7 175.2,238.2 177.6,234.7 C186.8,221.4 199.9,211.4 215.6,207.4 C229.7,203.7 243.9,205.4 256.3,211.2 C229.6,174.8 181.8,191.2 119.2,214.3 C47.7,240.6 19.1,149.3 19.1,149.3 C33.1,266.8 118.4,300.8 169.6,244.8 Z" id="Shape" fill="url(#linearGradient-5)"></path>
                <path d="M168.8,263.1 C170.8,259.2 172.5,255.1 174,250.8 C179.5,235.1 189.6,221.4 203.6,212.5 C216.3,204.5 230.2,201.6 243.6,203.3 C208.9,176.8 167.1,207.7 112.9,249.7 C50.9,297.6 0.6,219 0.6,219 C43.4,327.5 133.7,333 168.8,263.1 Z" id="Shape" fill="url(#linearGradient-6)"></path>
                <path d="M172.7,280.9 C173.6,276.5 174.2,272 174.6,267.5 C175.9,250.7 182.2,234.4 193.5,221.4 C203.7,209.7 216.3,202.5 229.6,199.9 C189.7,185.5 157.3,228.4 115.8,285.8 C68.3,351.4 0.3,292 0.3,292 C68.4,382.4 156.5,359.2 172.7,280.9 C172.7,280.9 172.7,280.9 172.7,280.9 Z" id="Shape" fill="url(#linearGradient-7)"></path>
                <path d="M180.8,296.8 C180.6,292.3 180.1,287.8 179.3,283.3 C176.4,266.8 178.3,249.1 185.9,233.1 C192.7,218.7 203.1,207.8 215.2,201 C173.3,199.8 153,251.2 127.5,319.5 C98.2,397.5 18.1,362 18.1,362 C106.1,427.2 184.9,377 180.8,296.8 C180.8,296.8 180.8,296.8 180.8,296.8 Z" id="Shape" fill="url(#linearGradient-8)"></path>
                <path d="M192.6,311.5 C191.3,307.2 189.6,303.1 187.8,299.1 C180.9,284.2 178.3,266.6 181.5,248.9 C184.4,232.9 191.7,219.2 201.6,208.8 C161.1,220.9 154.5,276.6 147,350.2 C138.5,434.2 52.8,425.5 52.8,425.5 C153.6,460.3 216.6,387.2 192.6,311.5 Z" id="Shape" fill="url(#linearGradient-9)"></path>
                <path d="M207.1,317.9 C204.7,314.2 202.1,310.8 199.3,307.5 C188.9,295.4 182,279.3 180.7,261.3 C179.5,245 183,229.5 189.9,216.5 C154.1,241 161.7,296.5 173,369.5 C185.9,452.8 101.4,471.6 101.4,471.6 C206.9,473 249,382.9 207.1,317.9 Z" id="Shape" fill="url(#linearGradient-10)"></path>
                <path d="M223.1,321.4 C219.9,318.6 216.5,316.1 213.1,313.9 C200.1,305.6 189.5,292.4 183.7,275.4 C178.5,260.2 178,244.2 181.3,229.5 C153,264.3 174.2,315.2 203.3,381.7 C236.5,457.6 160.2,502.4 160.2,502.4 C261.7,470.3 279.6,370.5 223.1,321.4 Z" id="Shape" fill="url(#linearGradient-11)"></path>
            </g>
        </g>
    </g>
</svg>