<svg xmlns="http://www.w3.org/2000/svg" width="526.08" height="395.01" viewBox="0 0 526.08 395.01"><path fill-rule="evenodd" fill="#8F4EC7" d="M284.7603,4.2068A125.6842,125.6842 0 0 1 386.8333,106.2799L343.8287,106.2799A83.6573,83.6573 0 0 0 284.7603,47.2115Z M284.7603,251.7932A125.6842,125.6842 0 0 0 386.8333,149.7201L343.8287,149.7201A83.6573,83.6573 0 0 1 284.7603,208.7885Z M241.3201,251.7932A125.6842,125.6842 0 0 1 139.2470,149.7201L182.2517,149.7201A83.6573,83.6573 0 0 0 241.3201,208.7885Z M241.3201,4.2068A125.6842,125.6842 0 0 0 139.2470,106.2799L182.2517,106.2799A83.6573,83.6573 0 0 1 241.3201,47.2115Z M201.91465759277344 103.30995178222656H215.3178253173828Q220.11476135253906 103.30995178222656 223.88880920410156 105.10879898071289Q227.66285705566406 106.90764617919922 229.8849639892578 110.2231674194336Q232.10707092285156 113.53868865966797 232.10707092285156 118.12397766113281Q232.10707092285156 122.63873291015625 229.8849639892578 125.9895248413086Q227.66285705566406 129.34031677246094 223.88880920410156 131.13916015625Q220.11476135253906 132.93800354003906 215.3178253173828 132.93800354003906H207.9108123779297V152.69004821777344H201.91465759277344ZM207.9108123779297 127.29457092285156H215.3178253173828Q220.11476135253906 127.29457092285156 223.1128387451172 124.9666519165039Q226.1109161376953 122.63873291015625 226.1109161376953 118.12397766113281Q226.1109161376953 113.53868865966797 223.1128387451172 111.24604034423828Q220.11476135253906 108.9533920288086 215.3178253173828 108.9533920288086H207.9108123779297V127.29457092285156Z M242.33580017089844 103.30995178222656H255.7389678955078Q260.535888671875 103.30995178222656 264.3099365234375 105.10879898071289Q268.083984375 106.90764617919922 270.30609130859375 110.2231674194336Q272.5281982421875 113.53868865966797 272.5281982421875 118.12397766113281Q272.5281982421875 122.63873291015625 270.30609130859375 125.9895248413086Q268.083984375 129.34031677246094 264.3099365234375 131.13916015625Q262.64117431640625 131.93455505371094 260.7723083496094 132.37826538085938L275.4909973144531 152.69004821777344H268.083984375L254.3434295654297 132.93800354003906H248.3319549560547V152.69004821777344H242.33580017089844ZM248.3319549560547 127.64728546142578H255.7389678955078Q258.91339111328125 127.64728546142578 261.3471221923828 126.51859664916992Q263.7808532714844 125.38990783691406 265.1564483642578 123.27362060546875Q266.53204345703125 121.15733337402344 266.53204345703125 118.12398147583008Q266.53204345703125 115.09062957763672 265.1564483642578 112.9743423461914Q263.7808532714844 110.8580551147461 261.3471221923828 109.72936630249023Q258.91339111328125 108.60067749023438 255.7389678955078 108.60067749023438H248.3319549560547V127.64728546142578Z M311.1681213378906 137.8760223388672H291.2771301269531L285.0143127441406 152.69004821777344H278.3127136230469L301.23919677734375 100.84095001220703L324.1656799316406 152.69004821777344H317.4640808105469L311.1681213378906 137.8760223388672ZM301.23919677734375 114.45574188232422 293.6936340332031 132.23257446289062H308.8038024902344Z"/><g fill="#1B1226"><g transform="translate(0.0000,384.1485) scale(0.118247,-0.118247)"><path d="M349 -12Q215 -12 139.0 79.5Q63 171 63 349Q63 527 139.0 618.5Q215 710 349 710Q482 710 558.0 618.0Q634 526 634 349Q634 172 558.0 80.0Q482 -12 349 -12ZM349 42Q399 42 439.5 59.5Q480 77 509.0 111.0Q538 145 554.0 194.0Q570 243 570 305V393Q570 455 554.0 504.0Q538 553 509.0 586.5Q480 620 439.5 638.0Q399 656 349 656Q299 656 258.0 638.0Q217 620 188.0 586.5Q159 553 143.0 504.0Q127 455 127 393V305Q127 243 143.0 194.0Q159 145 188.0 111.0Q217 77 258.0 59.5Q299 42 349 42Z"/></g><g transform="translate(85.9655,384.1485) scale(0.118247,-0.118247)"><path d="M93 512H150V430H153Q172 473 211.0 498.5Q250 524 309 524Q408 524 464.0 454.0Q520 384 520 256Q520 128 464.0 58.0Q408 -12 309 -12Q250 -12 212.0 13.5Q174 39 153 82H150V-200H93ZM296 39Q373 39 416.0 88.0Q459 137 459 220V292Q459 375 416.0 424.0Q373 473 296 473Q266 473 239.5 464.5Q213 456 193.0 441.0Q173 426 161.5 405.0Q150 384 150 359V156Q150 129 161.5 107.5Q173 86 193.0 70.5Q213 55 239.5 47.0Q266 39 296 39Z"/></g><g transform="translate(157.3866,384.1485) scale(0.118247,-0.118247)"><path d="M276 -12Q225 -12 183.5 6.0Q142 24 112.5 58.5Q83 93 67.5 143.0Q52 193 52 256Q52 319 67.5 368.5Q83 418 112.5 452.5Q142 487 183.0 505.5Q224 524 275 524Q324 524 364.0 505.5Q404 487 432.0 454.0Q460 421 475.5 374.5Q491 328 491 272V245H112V220Q112 180 123.5 146.5Q135 113 156.5 89.0Q178 65 209.0 51.5Q240 38 279 38Q391 38 434 141L476 113Q452 56 400.5 22.0Q349 -12 276 -12ZM275 476Q238 476 208.0 462.5Q178 449 156.5 425.0Q135 401 123.5 367.5Q112 334 112 294V289H429V297Q429 337 418.0 370.5Q407 404 386.5 427.0Q366 450 337.5 463.0Q309 476 275 476Z"/></g><g transform="translate(225.1420,384.1485) scale(0.118247,-0.118247)"><path d="M93 0V512H150V431H153Q170 471 206.0 497.5Q242 524 304 524Q386 524 431.5 473.5Q477 423 477 329V0H420V319Q420 397 386.5 435.0Q353 473 289 473Q262 473 237.0 466.0Q212 459 192.5 445.0Q173 431 161.5 409.5Q150 388 150 360V0Z"/></g><g transform="translate(295.2624,384.1485) scale(0.118247,-0.118247)"><path d="M99 0V698H373Q464 698 512.0 645.5Q560 593 560 503Q560 412 512.0 359.5Q464 307 373 307H159V0ZM159 360H373Q433 360 464.5 393.5Q496 427 496 479V527Q496 578 464.5 611.5Q433 645 373 645H159Z"/></g><g transform="translate(369.8762,384.1485) scale(0.118247,-0.118247)"><path d="M159 0H99V698H373Q463 698 511.5 647.0Q560 596 560 504Q560 423 520.5 373.0Q481 323 406 313L578 0H511L344 309H159ZM373 360Q433 360 464.5 393.5Q496 427 496 479V527Q496 578 464.5 611.5Q433 645 373 645H159V360Z"/></g><g transform="translate(448.6286,384.1485) scale(0.118247,-0.118247)"><path d="M536 0 460 217H163L87 0H27L274 698H351L599 0ZM313 641H309L178 269H444Z"/></g></g></svg>